<svg width="18" height="21" viewBox="0 0 18 21" fill="none" xmlns="http://www.w3.org/2000/svg">
<path d="M1 19.5H17M2.666 11.687C2.23962 12.1143 2.00011 12.6933 2 13.297V16.5H5.223C5.827 16.5 6.406 16.26 6.833 15.832L16.333 6.32697C16.7592 5.89957 16.9986 5.32058 16.9986 4.71697C16.9986 4.11336 16.7592 3.53437 16.333 3.10697L15.395 2.16697C15.1835 1.95532 14.9323 1.78744 14.6558 1.67294C14.3794 1.55843 14.083 1.49954 13.7838 1.49963C13.4846 1.49973 13.1883 1.5588 12.9119 1.67348C12.6355 1.78816 12.3844 1.95619 12.173 2.16797L2.666 11.687Z" stroke="#8B8A90" stroke-width="1.5" stroke-linecap="round" stroke-linejoin="round"/>
</svg>
